<svg width="68" height="68" viewBox="0 0 68 68" fill="none" xmlns="http://www.w3.org/2000/svg">
<rect width="68" height="68" rx="12" fill="black"/>
<path d="M32.4 47.15C30.62 47.15 29.01 46.75 27.57 45.95C26.15 45.15 25.02 43.98 24.18 42.44C23.34 40.88 22.92 39.02 22.92 36.86C22.92 33.82 23.47 31.14 24.57 28.82C25.69 26.5 27.2 24.71 29.1 23.45C31.02 22.19 33.14 21.56 35.46 21.56C37.24 21.56 38.84 21.96 40.26 22.76C41.7 23.56 42.84 24.74 43.68 26.3C44.52 27.84 44.94 29.69 44.94 31.85C44.94 34.89 44.38 37.57 43.26 39.89C42.16 42.21 40.65 44 38.73 45.26C36.83 46.52 34.72 47.15 32.4 47.15ZM32.7 43.61C34.26 43.61 35.63 43.13 36.81 42.17C38.01 41.21 38.93 39.88 39.57 38.18C40.21 36.46 40.53 34.52 40.53 32.36C40.53 29.98 40.03 28.18 39.03 26.96C38.03 25.72 36.74 25.1 35.16 25.1C33.62 25.1 32.26 25.58 31.08 26.54C29.9 27.48 28.98 28.81 28.32 30.53C27.66 32.23 27.33 34.17 27.33 36.35C27.33 38.73 27.83 40.54 28.83 41.78C29.83 43 31.12 43.61 32.7 43.61Z" fill="white"/>
</svg>
