<svg width="20" height="18" viewBox="0 0 20 18" fill="none" xmlns="http://www.w3.org/2000/svg">
<mask id="path-1-inside-1_7_176" fill="white">
<path d="M16.2207 0C17.8775 0.000110504 19.2207 1.34321 19.2207 3V11.7227C19.2206 13.3793 17.8774 14.7225 16.2207 14.7227H13.5762L11.8818 16.8838C11.6923 17.1255 11.4019 17.2666 11.0947 17.2666C10.8261 17.2666 10.5705 17.1585 10.3838 16.9697L10.3076 16.8838L8.61328 14.7227H3.22168C1.56504 14.7225 0.221828 13.3793 0.22168 11.7227V3C0.22168 1.34323 1.56495 0.000143579 3.22168 0H16.2207Z"/>
</mask>
<path d="M16.2207 0C17.8775 0.000110504 19.2207 1.34321 19.2207 3V11.7227C19.2206 13.3793 17.8774 14.7225 16.2207 14.7227H13.5762L11.8818 16.8838C11.6923 17.1255 11.4019 17.2666 11.0947 17.2666C10.8261 17.2666 10.5705 17.1585 10.3838 16.9697L10.3076 16.8838L8.61328 14.7227H3.22168C1.56504 14.7225 0.221828 13.3793 0.22168 11.7227V3C0.22168 1.34323 1.56495 0.000143579 3.22168 0H16.2207Z" fill="white"/>
<path d="M16.2207 0L16.2208 -2H16.2207V0ZM19.2207 3H21.2207H19.2207ZM19.2207 11.7227L21.2207 11.7228V11.7227H19.2207ZM16.2207 14.7227V16.7227H16.2208L16.2207 14.7227ZM13.5762 14.7227V12.7227C12.9617 12.7227 12.3813 13.0051 12.0022 13.4887L13.5762 14.7227ZM11.8818 16.8838L13.4557 18.1179L13.4558 18.1178L11.8818 16.8838ZM11.0947 17.2666L11.0944 19.2666H11.0947V17.2666ZM10.3838 16.9697L8.8871 18.2963C8.91122 18.3236 8.93608 18.3501 8.96166 18.376L10.3838 16.9697ZM10.3076 16.8838L8.73367 18.1178C8.75849 18.1494 8.78425 18.1803 8.81092 18.2104L10.3076 16.8838ZM8.61328 14.7227L10.1872 13.4887C9.80811 13.0051 9.22775 12.7227 8.61328 12.7227V14.7227ZM3.22168 14.7227L3.22151 16.7227H3.22168V14.7227ZM0.22168 11.7227H-1.77832V11.7228L0.22168 11.7227ZM3.22168 0V-2H3.22151L3.22168 0ZM16.2207 0L16.2206 2C16.773 2.00004 17.2207 2.44792 17.2207 3H19.2207H21.2207C21.2207 0.238513 18.9819 -1.99982 16.2208 -2L16.2207 0ZM19.2207 3H17.2207V11.7227H19.2207H21.2207V3H19.2207ZM19.2207 11.7227L17.2207 11.7225C17.2207 12.2748 16.7727 12.7226 16.2206 12.7227L16.2207 14.7227L16.2208 16.7227C18.982 16.7225 21.2205 14.4839 21.2207 11.7228L19.2207 11.7227ZM16.2207 14.7227V12.7227H13.5762V14.7227V16.7227H16.2207V14.7227ZM13.5762 14.7227L12.0022 13.4887L10.3079 15.6498L11.8818 16.8838L13.4558 18.1178L15.1501 15.9566L13.5762 14.7227ZM11.8818 16.8838L10.308 15.6497C10.4982 15.4072 10.7885 15.2666 11.0947 15.2666V17.2666V19.2666C12.0153 19.2666 12.8864 18.8439 13.4557 18.1179L11.8818 16.8838ZM11.0947 17.2666L11.0951 15.2666C11.3639 15.2667 11.6192 15.3747 11.8059 15.5635L10.3838 16.9697L8.96166 18.376C9.52167 18.9423 10.2883 19.2665 11.0944 19.2666L11.0947 17.2666ZM10.3838 16.9697L11.8805 15.6431L11.8043 15.5572L10.3076 16.8838L8.81092 18.2104L8.8871 18.2963L10.3838 16.9697ZM10.3076 16.8838L11.8816 15.6498L10.1872 13.4887L8.61328 14.7227L7.03934 15.9566L8.73367 18.1178L10.3076 16.8838ZM8.61328 14.7227V12.7227H3.22168V14.7227V16.7227H8.61328V14.7227ZM3.22168 14.7227L3.22185 12.7227C2.66965 12.7226 2.22173 12.2747 2.22168 11.7225L0.22168 11.7227L-1.77832 11.7228C-1.77807 14.4839 0.460424 16.7224 3.22151 16.7227L3.22168 14.7227ZM0.22168 11.7227H2.22168V3H0.22168H-1.77832V11.7227H0.22168ZM0.22168 3H2.22168C2.22168 2.44798 2.66938 2.00005 3.22185 2L3.22168 0L3.22151 -2C0.460514 -1.99976 -1.77832 0.238491 -1.77832 3H0.22168ZM3.22168 0V2H16.2207V0V-2H3.22168V0Z" fill="#767676" mask="url(#path-1-inside-1_7_176)"/>
<path d="M5.85199 7.48401H13.5907" stroke="#767676" stroke-width="2" stroke-linecap="round"/>
</svg>
